<svg width="128" height="132" viewBox="0 0 128 132" fill="none" xmlns="http://www.w3.org/2000/svg">
<circle cx="65.9196" cy="64.1401" r="62" fill="#DF2519"/>
<path d="M65.9196 41.1401L69.1723 60.8874L88.9196 64.1401L69.1723 67.3928L65.9196 87.1401L62.6669 67.3928L42.9196 64.1401L62.6669 60.8874L65.9196 41.1401Z" fill="white"/>
<path d="M45.4262 23.5896L46.4997 25.7949L49.193 24.484L49.6331 25.3882L46.9397 26.6991L48.3391 29.5742L47.2149 30.1214L43.862 23.2326L48.1579 21.1416L48.598 22.0458L45.4262 23.5896Z" fill="white"/>
<path d="M59.9734 24.5974L60.1896 25.5794L55.5292 26.6316L53.8419 19.1583L58.5024 18.1061L58.7238 19.087L55.283 19.8638L55.7915 22.1162L58.5421 21.4952L58.7565 22.4449L56.0059 23.0659L56.5273 25.3754L59.9734 24.5974Z" fill="white"/>
<path d="M69.2132 24.1747L69.199 25.1802L64.4214 25.1378L64.4894 17.4766L69.267 17.5191L69.2581 18.5246L65.7308 18.4933L65.7103 20.8022L68.53 20.8273L68.5213 21.8009L65.7016 21.7758L65.6806 24.1434L69.2132 24.1747Z" fill="white"/>
<path d="M80.8814 23.688C80.7347 24.2362 80.5113 24.7143 80.2111 25.1224C79.9119 25.527 79.556 25.8485 79.1434 26.0869C78.7342 26.3262 78.2775 26.4757 77.7732 26.5354C77.2732 26.5925 76.7457 26.5468 76.1906 26.3983L73.3947 25.6501L75.3751 18.2491L78.171 18.9972C78.7261 19.1458 79.2055 19.3713 79.6092 19.674C80.0172 19.9741 80.3387 20.33 80.5737 20.7417C80.8121 21.1543 80.9595 21.6123 81.0157 22.1157C81.0728 22.6156 81.0281 23.1397 80.8814 23.688ZM79.653 23.3593C79.7667 22.9344 79.8107 22.5368 79.7849 22.1664C79.7626 21.7969 79.6747 21.4668 79.5212 21.176C79.3711 20.8862 79.1601 20.6388 78.8881 20.4338C78.6171 20.2255 78.2914 20.0704 77.9111 19.9686L76.323 19.5437L74.8624 25.0019L76.4506 25.4269C76.8309 25.5287 77.19 25.5587 77.528 25.5169C77.8659 25.4752 78.1723 25.3662 78.4471 25.1901C78.7262 25.0114 78.9673 24.7693 79.1702 24.4638C79.3774 24.1558 79.5384 23.7876 79.653 23.3593Z" fill="white"/>
<path d="M101.136 32.4945L94.3081 36.7095L93.4612 35.9725L95.716 30.642C95.7395 30.5825 95.7665 30.519 95.797 30.4515C95.8302 30.3864 95.8669 30.3172 95.9071 30.244C95.8402 30.2939 95.7754 30.3387 95.7128 30.3782C95.6528 30.4201 95.595 30.4568 95.5394 30.4883L90.5594 33.4474L89.7125 32.7104L92.9438 25.3662L93.7304 26.0507C93.8107 26.1206 93.8601 26.1989 93.8787 26.2856C93.9023 26.3719 93.8944 26.4567 93.8549 26.5399L91.7149 31.1874C91.6665 31.2863 91.6109 31.3908 91.5481 31.5007C91.4853 31.6107 91.4191 31.7246 91.3493 31.8426C91.4565 31.7572 91.5616 31.677 91.6645 31.602C91.7724 31.5266 91.8735 31.4618 91.9678 31.4075L96.4316 28.7821C96.4969 28.7449 96.5775 28.728 96.6732 28.7314C96.769 28.7348 96.8557 28.7703 96.9333 28.8378L97.2062 29.0753C97.2892 29.1475 97.3374 29.2271 97.351 29.3142C97.3669 29.3985 97.3615 29.4831 97.3347 29.568L95.3472 34.3482C95.3065 34.4491 95.2572 34.5544 95.1994 34.664C95.1467 34.7732 95.0866 34.8855 95.0192 35.0008C95.124 34.9181 95.2229 34.8396 95.3158 34.7652C95.4137 34.6906 95.5071 34.6237 95.5961 34.5648L99.8994 31.7997C99.9667 31.7548 100.047 31.7354 100.14 31.7415C100.237 31.7499 100.323 31.7879 100.401 31.8554L101.136 32.4945Z" fill="white"/>
<path d="M101.544 44.7921L100.693 45.3269L98.1305 41.2943L104.597 37.1855L107.159 41.2181L106.311 41.7574L104.419 38.7801L102.47 40.0185L103.982 42.3985L103.16 42.9206L101.648 40.5406L99.6497 41.8103L101.544 44.7921Z" fill="white"/>
<path d="M104.994 52.9998L104.011 53.3499L102.526 49.1801L109.742 46.6083L110.16 47.7811L103.926 50.0028L104.994 52.9998Z" fill="white"/>
<path d="M106.503 61.5485L105.469 61.6794L104.913 57.2878L112.514 56.3262L112.67 57.5614L106.104 58.392L106.503 61.5485Z" fill="white"/>
<path d="M22.5718 64.6054C22.507 64.5721 22.4577 64.5358 22.4236 64.4968C22.3931 64.4574 22.3755 64.4068 22.371 64.3448C22.3662 64.2793 22.3884 64.2033 22.4374 64.1166C22.4868 64.0333 22.5398 63.929 22.5964 63.8037C22.6567 63.6816 22.7086 63.5375 22.7519 63.3716C22.7986 63.2055 22.8138 63.0104 22.7975 62.7866C22.7824 62.5799 22.7432 62.3992 22.68 62.2445C22.617 62.0933 22.5351 61.9677 22.4343 61.8677C22.3335 61.7677 22.2174 61.6948 22.0859 61.649C21.9582 61.6064 21.8202 61.5905 21.6721 61.6013C21.4827 61.6151 21.3279 61.6766 21.2077 61.7858C21.091 61.8948 20.9938 62.0334 20.916 62.2019C20.8385 62.3737 20.773 62.5672 20.7195 62.7824C20.6694 62.9973 20.6143 63.216 20.5544 63.4385C20.4947 63.6645 20.4243 63.8861 20.3432 64.1032C20.2621 64.3204 20.1534 64.5153 20.0171 64.688C19.881 64.8641 19.7099 65.0099 19.5036 65.1254C19.2973 65.2409 19.0409 65.3098 18.7344 65.3322C18.4037 65.3563 18.0895 65.3221 17.7919 65.2296C17.4943 65.137 17.229 64.9902 16.9962 64.789C16.7671 64.591 16.5789 64.3381 16.4318 64.0303C16.2849 63.7259 16.1968 63.3722 16.1674 62.9692C16.15 62.7315 16.1572 62.4972 16.1888 62.2664C16.2172 62.0392 16.2652 61.8193 16.3328 61.6066C16.4041 61.3971 16.4935 61.1984 16.601 61.0105C16.7084 60.8226 16.8311 60.6526 16.9689 60.5005L17.5732 60.8096C17.6237 60.8371 17.6645 60.874 17.6956 60.9202C17.7266 60.9664 17.7443 61.0188 17.7486 61.0773C17.7544 61.1566 17.7229 61.2472 17.6541 61.3491C17.5888 61.4509 17.5163 61.5722 17.4366 61.713C17.3605 61.8571 17.2916 62.0283 17.2299 62.2268C17.1717 62.4249 17.1524 62.6583 17.172 62.927C17.2039 63.3645 17.3353 63.6942 17.5662 63.9163C17.7974 64.1418 18.1007 64.2409 18.4761 64.2135C18.6862 64.1982 18.8531 64.1358 18.9767 64.0263C19.1037 63.9166 19.206 63.7759 19.2835 63.604C19.3612 63.4356 19.4234 63.244 19.4701 63.0294C19.5168 62.8148 19.5666 62.5964 19.6197 62.3744C19.6762 62.1521 19.7432 61.9325 19.8209 61.7156C19.902 61.4985 20.0123 61.3017 20.1518 61.1253C20.295 60.9521 20.4749 60.8074 20.6915 60.6911C20.9115 60.5747 21.1903 60.5041 21.5279 60.4795C21.7966 60.4599 22.0604 60.4925 22.3194 60.5775C22.5786 60.666 22.812 60.803 23.0195 60.9887C23.2306 61.1776 23.4056 61.4159 23.5443 61.7036C23.683 61.9913 23.7662 62.3245 23.7939 62.7034C23.8251 63.1306 23.7864 63.5264 23.678 63.891C23.5698 64.259 23.4011 64.5813 23.172 64.8577L22.5718 64.6054Z" fill="white"/>
<path d="M24.6546 73.347L24.0902 71.0905L17.8333 72.6554L17.5404 71.4844L23.7974 69.9195L23.2318 67.6579L24.2118 67.4128L25.6346 73.1019L24.6546 73.347Z" fill="white"/>
<path d="M24.0279 81.3728L26.069 79.2964C26.2253 79.1326 26.4325 78.9433 26.6908 78.7285C26.5275 78.7622 26.3738 78.7878 26.2296 78.8052C26.0885 78.8211 25.963 78.8336 25.853 78.8426L22.9541 79.0556L24.0279 81.3728ZM22.4547 84.6313L22.0605 83.7805C22.0155 83.6834 22.0027 83.5942 22.0221 83.5128C22.0446 83.4301 22.0847 83.3563 22.1422 83.2916L23.3755 82.0349L22.025 79.1207L20.2689 79.2493C20.1946 79.2533 20.1163 79.2363 20.034 79.1983C19.9517 79.1604 19.8888 79.0944 19.8452 79.0004L19.451 78.1496L27.4631 77.6968L27.9794 78.8108L22.4547 84.6313Z" fill="white"/>
<path d="M28.8634 89.064L26.4998 90.7816L25.7902 89.8051L28.1538 88.0875L30.2231 83.2154L30.8474 84.0745C30.9103 84.1611 30.9391 84.2448 30.9338 84.3256C30.9284 84.4063 30.9058 84.4868 30.8659 84.567L29.6018 87.3747C29.5335 87.5098 29.4666 87.6352 29.4013 87.7509C29.3381 87.8695 29.2721 87.9814 29.2035 88.0868C29.3236 88.0465 29.4474 88.0141 29.5749 87.9898C29.7052 87.9635 29.8451 87.9386 29.9947 87.9153L33.0494 87.5718C33.1256 87.5591 33.2053 87.5631 33.2886 87.5837C33.3747 87.6023 33.4482 87.6535 33.5091 87.7373L34.1364 88.6006L28.8634 89.064Z" fill="white"/>
<path d="M44.6697 97.8028L40.2671 103.825L39.2885 103.109L41.2482 100.429L38.2246 98.2183L36.2648 100.899L35.282 100.181L39.6847 94.1584L40.6675 94.8768L38.7413 97.5115L41.7649 99.722L43.6911 97.0873L44.6697 97.8028Z" fill="white"/>
<path d="M49.2345 107.386L48.8155 108.271L44.6003 106.303L47.7564 99.5436L51.9716 101.512L51.5573 102.399L48.4452 100.946L47.494 102.983L49.9818 104.145L49.5808 105.004L47.0929 103.842L46.1176 105.931L49.2345 107.386Z" fill="white"/>
<path d="M57.8166 108.176L57.491 105.282C57.4624 105.058 57.446 104.778 57.442 104.442C57.3653 104.59 57.2883 104.725 57.2108 104.848C57.1343 104.968 57.0648 105.073 57.0026 105.164L55.3408 107.549L57.8166 108.176ZM59.3549 111.451L58.4459 111.221C58.3421 111.194 58.2648 111.148 58.2139 111.082C58.1638 111.012 58.1318 110.935 58.1178 110.849L57.9195 109.1L54.8058 108.311L53.7989 109.756C53.7551 109.816 53.6926 109.866 53.6112 109.906C53.5298 109.946 53.4389 109.953 53.3385 109.928L52.4295 109.698L57.1278 103.192L58.318 103.493L59.3549 111.451Z" fill="white"/>
<path d="M68.0243 111.265L67.9588 112.278L63.6576 112L64.1393 104.555L65.349 104.634L64.9329 111.065L68.0243 111.265Z" fill="white"/>
<path d="M76.8944 105.214L74.5818 105.463L75.2745 111.876L74.0745 112.005L73.3817 105.593L71.064 105.843L70.9555 104.839L76.7859 104.209L76.8944 105.214Z" fill="white"/>
<path d="M85.4879 101.818L87.7071 108.94L86.5497 109.301L85.5619 106.13L81.986 107.244L82.9738 110.415L81.8115 110.777L79.5923 103.655L80.7546 103.293L81.7255 106.409L85.3014 105.294L84.3305 102.178L85.4879 101.818Z" fill="white"/>
<path d="M93.5262 102.929L94.9322 105.49L93.8741 106.071L92.4681 103.51L87.8956 100.843L88.8265 100.332C88.9204 100.281 89.007 100.263 89.0864 100.278C89.1658 100.294 89.2428 100.326 89.3174 100.376L91.9434 101.984C92.0688 102.068 92.1848 102.151 92.2914 102.23C92.401 102.308 92.5038 102.387 92.5996 102.469C92.5748 102.344 92.5583 102.217 92.5502 102.088C92.5405 101.955 92.5335 101.813 92.5292 101.662L92.5734 98.5884C92.5704 98.5112 92.5844 98.4326 92.6154 98.3526C92.6446 98.2695 92.7047 98.2031 92.7955 98.1532L93.731 97.6397L93.5262 102.929Z" fill="white"/>
</svg>
