<svg width="40" height="40" viewBox="0 0 40 40" fill="none" xmlns="http://www.w3.org/2000/svg">
<circle r="19.8784" transform="matrix(1 0 0 -1 19.8784 20.1216)" fill="#DF2519"/>
<path fill-rule="evenodd" clip-rule="evenodd" d="M19.8783 27.8165C19.1701 27.8165 18.5959 27.2423 18.5959 26.5341V21.4042H13.466C12.7577 21.4042 12.1835 20.83 12.1835 20.1217C12.1835 19.4134 12.7577 18.8392 13.466 18.8392H18.5959V13.7093C18.5959 13.001 19.1701 12.4268 19.8783 12.4268C20.5866 12.4268 21.1608 13.001 21.1608 13.7093V18.8392H26.2907C26.999 18.8392 27.5732 19.4134 27.5732 20.1217C27.5732 20.83 26.999 21.4042 26.2907 21.4042H21.1608V26.5341C21.1608 27.2423 20.5866 27.8165 19.8783 27.8165Z" fill="white"/>
</svg>
